<mxfile host="app.diagrams.net" modified="2021-01-11T06:50:40.950Z" agent="5.0 (Windows NT 10.0; Win64; x64) AppleWebKit/537.36 (KHTML, like Gecko) Chrome/87.0.4280.141 Safari/537.36" etag="ER5IjiWONIrrTsGHAvAm" version="14.1.9" type="github">
  <diagram id="q3lnmK2u3PksRstwcWIF" name="Page-1">
    <mxGraphModel dx="1640" dy="435" grid="1" gridSize="10" guides="1" tooltips="1" connect="1" arrows="1" fold="1" page="1" pageScale="1" pageWidth="827" pageHeight="1169" math="0" shadow="0">
      <root>
        <mxCell id="0" />
        <mxCell id="1" parent="0" />
        <mxCell id="sfNCHB1NnnzIo0879sDw-2" value="" style="rounded=1;whiteSpace=wrap;html=1;" vertex="1" parent="1">
          <mxGeometry x="361.5" y="87.5" width="61" height="35" as="geometry" />
        </mxCell>
        <mxCell id="sfNCHB1NnnzIo0879sDw-1" value="M0.0" style="rounded=1;whiteSpace=wrap;html=1;" vertex="1" parent="1">
          <mxGeometry x="364" y="90" width="56" height="30" as="geometry" />
        </mxCell>
        <mxCell id="sfNCHB1NnnzIo0879sDw-5" value="" style="endArrow=none;html=1;" edge="1" parent="1">
          <mxGeometry width="50" height="50" relative="1" as="geometry">
            <mxPoint x="392" y="40" as="sourcePoint" />
            <mxPoint x="392" y="90" as="targetPoint" />
            <Array as="points">
              <mxPoint x="392" y="80" />
            </Array>
          </mxGeometry>
        </mxCell>
        <mxCell id="sfNCHB1NnnzIo0879sDw-8" value="SM0.1" style="text;html=1;strokeColor=none;fillColor=none;align=center;verticalAlign=middle;whiteSpace=wrap;rounded=0;" vertex="1" parent="1">
          <mxGeometry x="410" y="60" width="40" height="20" as="geometry" />
        </mxCell>
        <mxCell id="sfNCHB1NnnzIo0879sDw-9" value="M0.1" style="rounded=1;whiteSpace=wrap;html=1;" vertex="1" parent="1">
          <mxGeometry x="364" y="150" width="56" height="30" as="geometry" />
        </mxCell>
        <mxCell id="sfNCHB1NnnzIo0879sDw-10" value="" style="endArrow=none;html=1;exitX=0.5;exitY=1;exitDx=0;exitDy=0;" edge="1" parent="1" source="sfNCHB1NnnzIo0879sDw-2" target="sfNCHB1NnnzIo0879sDw-9">
          <mxGeometry width="50" height="50" relative="1" as="geometry">
            <mxPoint x="390" y="140" as="sourcePoint" />
            <mxPoint x="440" y="90" as="targetPoint" />
          </mxGeometry>
        </mxCell>
        <mxCell id="sfNCHB1NnnzIo0879sDw-11" value="" style="endArrow=none;html=1;" edge="1" parent="1">
          <mxGeometry width="50" height="50" relative="1" as="geometry">
            <mxPoint x="397" y="140" as="sourcePoint" />
            <mxPoint x="387" y="140" as="targetPoint" />
          </mxGeometry>
        </mxCell>
        <mxCell id="sfNCHB1NnnzIo0879sDw-13" value="" style="endArrow=none;html=1;" edge="1" parent="1">
          <mxGeometry width="50" height="50" relative="1" as="geometry">
            <mxPoint x="397" y="69.88" as="sourcePoint" />
            <mxPoint x="387" y="69.88" as="targetPoint" />
            <Array as="points" />
          </mxGeometry>
        </mxCell>
        <mxCell id="sfNCHB1NnnzIo0879sDw-14" value="SB1" style="text;html=1;strokeColor=none;fillColor=none;align=center;verticalAlign=middle;whiteSpace=wrap;rounded=0;" vertex="1" parent="1">
          <mxGeometry x="400" y="122.5" width="40" height="20" as="geometry" />
        </mxCell>
        <mxCell id="sfNCHB1NnnzIo0879sDw-15" value="" style="endArrow=none;html=1;entryX=0.5;entryY=1;entryDx=0;entryDy=0;" edge="1" parent="1" target="sfNCHB1NnnzIo0879sDw-9">
          <mxGeometry width="50" height="50" relative="1" as="geometry">
            <mxPoint x="392" y="210" as="sourcePoint" />
            <mxPoint x="410" y="190" as="targetPoint" />
          </mxGeometry>
        </mxCell>
        <mxCell id="sfNCHB1NnnzIo0879sDw-17" value="" style="endArrow=none;html=1;" edge="1" parent="1">
          <mxGeometry width="50" height="50" relative="1" as="geometry">
            <mxPoint x="387" y="200" as="sourcePoint" />
            <mxPoint x="397" y="200" as="targetPoint" />
            <Array as="points" />
          </mxGeometry>
        </mxCell>
        <mxCell id="sfNCHB1NnnzIo0879sDw-18" value="M0.2" style="rounded=1;whiteSpace=wrap;html=1;" vertex="1" parent="1">
          <mxGeometry x="360" y="210" width="67" height="30" as="geometry" />
        </mxCell>
        <mxCell id="sfNCHB1NnnzIo0879sDw-19" value="" style="endArrow=none;html=1;exitX=1;exitY=0.5;exitDx=0;exitDy=0;entryX=0;entryY=0.5;entryDx=0;entryDy=0;" edge="1" parent="1" source="sfNCHB1NnnzIo0879sDw-9" target="sfNCHB1NnnzIo0879sDw-20">
          <mxGeometry width="50" height="50" relative="1" as="geometry">
            <mxPoint x="440" y="190" as="sourcePoint" />
            <mxPoint x="460" y="165" as="targetPoint" />
          </mxGeometry>
        </mxCell>
        <mxCell id="sfNCHB1NnnzIo0879sDw-20" value="S&amp;nbsp; KM1" style="rounded=0;whiteSpace=wrap;html=1;" vertex="1" parent="1">
          <mxGeometry x="467" y="150" width="50" height="30" as="geometry" />
        </mxCell>
        <mxCell id="sfNCHB1NnnzIo0879sDw-21" value="T1&amp;nbsp; 10S" style="rounded=0;whiteSpace=wrap;html=1;" vertex="1" parent="1">
          <mxGeometry x="517" y="150" width="50" height="30" as="geometry" />
        </mxCell>
        <mxCell id="sfNCHB1NnnzIo0879sDw-22" value="T1" style="text;html=1;strokeColor=none;fillColor=none;align=center;verticalAlign=middle;whiteSpace=wrap;rounded=0;" vertex="1" parent="1">
          <mxGeometry x="400" y="180" width="40" height="20" as="geometry" />
        </mxCell>
        <mxCell id="sfNCHB1NnnzIo0879sDw-23" value="S&amp;nbsp; KM2" style="rounded=0;whiteSpace=wrap;html=1;" vertex="1" parent="1">
          <mxGeometry x="467" y="212.5" width="50" height="27.5" as="geometry" />
        </mxCell>
        <mxCell id="sfNCHB1NnnzIo0879sDw-24" value="T2&amp;nbsp; 10S" style="rounded=0;whiteSpace=wrap;html=1;" vertex="1" parent="1">
          <mxGeometry x="517" y="212.5" width="50" height="27.5" as="geometry" />
        </mxCell>
        <mxCell id="sfNCHB1NnnzIo0879sDw-26" value="T3&amp;nbsp; 10S" style="rounded=0;whiteSpace=wrap;html=1;" vertex="1" parent="1">
          <mxGeometry x="467" y="270" width="50" height="27.5" as="geometry" />
        </mxCell>
        <mxCell id="sfNCHB1NnnzIo0879sDw-27" value="R&amp;nbsp; KM1" style="rounded=0;whiteSpace=wrap;html=1;" vertex="1" parent="1">
          <mxGeometry x="467" y="330" width="50" height="27.5" as="geometry" />
        </mxCell>
        <mxCell id="sfNCHB1NnnzIo0879sDw-28" value="T4&amp;nbsp; 10S" style="rounded=0;whiteSpace=wrap;html=1;" vertex="1" parent="1">
          <mxGeometry x="517" y="330" width="50" height="27.5" as="geometry" />
        </mxCell>
        <mxCell id="sfNCHB1NnnzIo0879sDw-29" value="R&amp;nbsp; KM2" style="rounded=0;whiteSpace=wrap;html=1;" vertex="1" parent="1">
          <mxGeometry x="467" y="390" width="50" height="27.5" as="geometry" />
        </mxCell>
        <mxCell id="sfNCHB1NnnzIo0879sDw-30" value="" style="endArrow=none;html=1;entryX=0.5;entryY=1;entryDx=0;entryDy=0;" edge="1" parent="1">
          <mxGeometry width="50" height="50" relative="1" as="geometry">
            <mxPoint x="393.5" y="270" as="sourcePoint" />
            <mxPoint x="393.5" y="240" as="targetPoint" />
          </mxGeometry>
        </mxCell>
        <mxCell id="sfNCHB1NnnzIo0879sDw-31" value="" style="endArrow=none;html=1;" edge="1" parent="1">
          <mxGeometry width="50" height="50" relative="1" as="geometry">
            <mxPoint x="388.5" y="260" as="sourcePoint" />
            <mxPoint x="398.5" y="260" as="targetPoint" />
            <Array as="points" />
          </mxGeometry>
        </mxCell>
        <mxCell id="sfNCHB1NnnzIo0879sDw-32" value="M0.3" style="rounded=1;whiteSpace=wrap;html=1;" vertex="1" parent="1">
          <mxGeometry x="361.5" y="270" width="67" height="30" as="geometry" />
        </mxCell>
        <mxCell id="sfNCHB1NnnzIo0879sDw-33" value="" style="endArrow=none;html=1;entryX=0.5;entryY=1;entryDx=0;entryDy=0;" edge="1" parent="1">
          <mxGeometry width="50" height="50" relative="1" as="geometry">
            <mxPoint x="393.5" y="330" as="sourcePoint" />
            <mxPoint x="393.5" y="300" as="targetPoint" />
          </mxGeometry>
        </mxCell>
        <mxCell id="sfNCHB1NnnzIo0879sDw-34" value="" style="endArrow=none;html=1;" edge="1" parent="1">
          <mxGeometry width="50" height="50" relative="1" as="geometry">
            <mxPoint x="388.5" y="320" as="sourcePoint" />
            <mxPoint x="398.5" y="320" as="targetPoint" />
            <Array as="points" />
          </mxGeometry>
        </mxCell>
        <mxCell id="sfNCHB1NnnzIo0879sDw-35" value="M0.4" style="rounded=1;whiteSpace=wrap;html=1;" vertex="1" parent="1">
          <mxGeometry x="361.5" y="330" width="67" height="30" as="geometry" />
        </mxCell>
        <mxCell id="sfNCHB1NnnzIo0879sDw-36" value="" style="endArrow=none;html=1;entryX=0.5;entryY=1;entryDx=0;entryDy=0;" edge="1" parent="1">
          <mxGeometry width="50" height="50" relative="1" as="geometry">
            <mxPoint x="393.5" y="390" as="sourcePoint" />
            <mxPoint x="393.5" y="360" as="targetPoint" />
          </mxGeometry>
        </mxCell>
        <mxCell id="sfNCHB1NnnzIo0879sDw-37" value="" style="endArrow=none;html=1;" edge="1" parent="1">
          <mxGeometry width="50" height="50" relative="1" as="geometry">
            <mxPoint x="388.5" y="380" as="sourcePoint" />
            <mxPoint x="398.5" y="380" as="targetPoint" />
            <Array as="points" />
          </mxGeometry>
        </mxCell>
        <mxCell id="sfNCHB1NnnzIo0879sDw-38" value="M0.5" style="rounded=1;whiteSpace=wrap;html=1;" vertex="1" parent="1">
          <mxGeometry x="361.5" y="390" width="67" height="30" as="geometry" />
        </mxCell>
        <mxCell id="sfNCHB1NnnzIo0879sDw-40" value="" style="endArrow=none;html=1;exitX=1;exitY=0.5;exitDx=0;exitDy=0;" edge="1" parent="1">
          <mxGeometry width="50" height="50" relative="1" as="geometry">
            <mxPoint x="427" y="226.05" as="sourcePoint" />
            <mxPoint x="467" y="226.05" as="targetPoint" />
          </mxGeometry>
        </mxCell>
        <mxCell id="sfNCHB1NnnzIo0879sDw-41" value="" style="endArrow=none;html=1;exitX=1;exitY=0.5;exitDx=0;exitDy=0;" edge="1" parent="1">
          <mxGeometry width="50" height="50" relative="1" as="geometry">
            <mxPoint x="428.5" y="283.55" as="sourcePoint" />
            <mxPoint x="468.5" y="283.55" as="targetPoint" />
          </mxGeometry>
        </mxCell>
        <mxCell id="sfNCHB1NnnzIo0879sDw-43" value="" style="endArrow=none;html=1;exitX=1;exitY=0.5;exitDx=0;exitDy=0;" edge="1" parent="1">
          <mxGeometry width="50" height="50" relative="1" as="geometry">
            <mxPoint x="428.5" y="343.54999999999995" as="sourcePoint" />
            <mxPoint x="468.5" y="343.54999999999995" as="targetPoint" />
          </mxGeometry>
        </mxCell>
        <mxCell id="sfNCHB1NnnzIo0879sDw-44" value="" style="endArrow=none;html=1;exitX=1;exitY=0.5;exitDx=0;exitDy=0;" edge="1" parent="1">
          <mxGeometry width="50" height="50" relative="1" as="geometry">
            <mxPoint x="428.5" y="404.79999999999995" as="sourcePoint" />
            <mxPoint x="468.5" y="404.79999999999995" as="targetPoint" />
          </mxGeometry>
        </mxCell>
        <mxCell id="sfNCHB1NnnzIo0879sDw-45" value="T2" style="text;html=1;strokeColor=none;fillColor=none;align=center;verticalAlign=middle;whiteSpace=wrap;rounded=0;" vertex="1" parent="1">
          <mxGeometry x="400" y="240" width="40" height="20" as="geometry" />
        </mxCell>
        <mxCell id="sfNCHB1NnnzIo0879sDw-46" value="T3" style="text;html=1;strokeColor=none;fillColor=none;align=center;verticalAlign=middle;whiteSpace=wrap;rounded=0;" vertex="1" parent="1">
          <mxGeometry x="400" y="300" width="40" height="20" as="geometry" />
        </mxCell>
        <mxCell id="sfNCHB1NnnzIo0879sDw-47" value="T4" style="text;html=1;strokeColor=none;fillColor=none;align=center;verticalAlign=middle;whiteSpace=wrap;rounded=0;" vertex="1" parent="1">
          <mxGeometry x="400" y="360" width="40" height="20" as="geometry" />
        </mxCell>
        <mxCell id="sfNCHB1NnnzIo0879sDw-48" value="" style="endArrow=classic;html=1;exitX=0.5;exitY=1;exitDx=0;exitDy=0;" edge="1" parent="1" source="sfNCHB1NnnzIo0879sDw-38">
          <mxGeometry width="50" height="50" relative="1" as="geometry">
            <mxPoint x="300" y="420" as="sourcePoint" />
            <mxPoint x="390" y="130" as="targetPoint" />
            <Array as="points">
              <mxPoint x="395" y="450" />
              <mxPoint x="395" y="490" />
              <mxPoint x="350" y="490" />
              <mxPoint x="230" y="490" />
              <mxPoint x="230" y="450" />
              <mxPoint x="230" y="130" />
            </Array>
          </mxGeometry>
        </mxCell>
        <mxCell id="sfNCHB1NnnzIo0879sDw-50" value="M0.6" style="rounded=1;whiteSpace=wrap;html=1;" vertex="1" parent="1">
          <mxGeometry x="250" y="390" width="50" height="30" as="geometry" />
        </mxCell>
        <mxCell id="sfNCHB1NnnzIo0879sDw-51" value="" style="endArrow=none;html=1;" edge="1" parent="1">
          <mxGeometry width="50" height="50" relative="1" as="geometry">
            <mxPoint x="274" y="390" as="sourcePoint" />
            <mxPoint x="390" y="190" as="targetPoint" />
            <Array as="points">
              <mxPoint x="274" y="360" />
              <mxPoint x="274" y="200" />
              <mxPoint x="274" y="190" />
              <mxPoint x="280" y="190" />
            </Array>
          </mxGeometry>
        </mxCell>
        <mxCell id="sfNCHB1NnnzIo0879sDw-53" value="" style="endArrow=none;html=1;" edge="1" parent="1">
          <mxGeometry width="50" height="50" relative="1" as="geometry">
            <mxPoint x="280" y="250" as="sourcePoint" />
            <mxPoint x="390" y="250" as="targetPoint" />
          </mxGeometry>
        </mxCell>
        <mxCell id="sfNCHB1NnnzIo0879sDw-54" value="" style="endArrow=none;html=1;" edge="1" parent="1">
          <mxGeometry width="50" height="50" relative="1" as="geometry">
            <mxPoint x="280" y="310" as="sourcePoint" />
            <mxPoint x="390" y="310" as="targetPoint" />
          </mxGeometry>
        </mxCell>
        <mxCell id="sfNCHB1NnnzIo0879sDw-55" value="" style="endArrow=none;html=1;" edge="1" parent="1">
          <mxGeometry width="50" height="50" relative="1" as="geometry">
            <mxPoint x="280" y="370" as="sourcePoint" />
            <mxPoint x="390" y="370" as="targetPoint" />
          </mxGeometry>
        </mxCell>
        <mxCell id="sfNCHB1NnnzIo0879sDw-58" value="" style="endArrow=none;html=1;" edge="1" parent="1">
          <mxGeometry width="50" height="50" relative="1" as="geometry">
            <mxPoint x="270" y="380" as="sourcePoint" />
            <mxPoint x="280" y="380" as="targetPoint" />
            <Array as="points" />
          </mxGeometry>
        </mxCell>
        <mxCell id="sfNCHB1NnnzIo0879sDw-59" value="SB2" style="text;html=1;strokeColor=none;fillColor=none;align=center;verticalAlign=middle;whiteSpace=wrap;rounded=0;" vertex="1" parent="1">
          <mxGeometry x="280" y="370" width="40" height="20" as="geometry" />
        </mxCell>
        <mxCell id="sfNCHB1NnnzIo0879sDw-60" value="R&amp;nbsp; KM1 KM2" style="rounded=0;whiteSpace=wrap;html=1;" vertex="1" parent="1">
          <mxGeometry x="300" y="440" width="80" height="27.5" as="geometry" />
        </mxCell>
        <mxCell id="sfNCHB1NnnzIo0879sDw-61" value="" style="endArrow=none;html=1;entryX=0.5;entryY=1;entryDx=0;entryDy=0;" edge="1" parent="1" target="sfNCHB1NnnzIo0879sDw-50">
          <mxGeometry width="50" height="50" relative="1" as="geometry">
            <mxPoint x="275" y="490" as="sourcePoint" />
            <mxPoint x="290" y="430" as="targetPoint" />
          </mxGeometry>
        </mxCell>
        <mxCell id="sfNCHB1NnnzIo0879sDw-62" value="" style="endArrow=none;html=1;entryX=0.5;entryY=0;entryDx=0;entryDy=0;" edge="1" parent="1" target="sfNCHB1NnnzIo0879sDw-60">
          <mxGeometry width="50" height="50" relative="1" as="geometry">
            <mxPoint x="300" y="407.5" as="sourcePoint" />
            <mxPoint x="350" y="357.5" as="targetPoint" />
            <Array as="points">
              <mxPoint x="335" y="408" />
              <mxPoint x="340" y="408" />
            </Array>
          </mxGeometry>
        </mxCell>
        <mxCell id="sfNCHB1NnnzIo0879sDw-161" value="" style="rounded=1;whiteSpace=wrap;html=1;" vertex="1" parent="1">
          <mxGeometry x="-541.5" y="67.5" width="61" height="35" as="geometry" />
        </mxCell>
        <mxCell id="sfNCHB1NnnzIo0879sDw-162" value="M0.0" style="rounded=1;whiteSpace=wrap;html=1;" vertex="1" parent="1">
          <mxGeometry x="-539" y="70" width="56" height="30" as="geometry" />
        </mxCell>
        <mxCell id="sfNCHB1NnnzIo0879sDw-163" value="" style="endArrow=none;html=1;" edge="1" parent="1">
          <mxGeometry width="50" height="50" relative="1" as="geometry">
            <mxPoint x="-511" y="20" as="sourcePoint" />
            <mxPoint x="-511" y="70" as="targetPoint" />
            <Array as="points">
              <mxPoint x="-511" y="60" />
            </Array>
          </mxGeometry>
        </mxCell>
        <mxCell id="sfNCHB1NnnzIo0879sDw-164" value="SM0.1" style="text;html=1;strokeColor=none;fillColor=none;align=center;verticalAlign=middle;whiteSpace=wrap;rounded=0;" vertex="1" parent="1">
          <mxGeometry x="-493" y="40" width="40" height="20" as="geometry" />
        </mxCell>
        <mxCell id="sfNCHB1NnnzIo0879sDw-165" value="" style="endArrow=none;html=1;exitX=0.5;exitY=1;exitDx=0;exitDy=0;" edge="1" parent="1" source="sfNCHB1NnnzIo0879sDw-161">
          <mxGeometry width="50" height="50" relative="1" as="geometry">
            <mxPoint x="-513" y="120" as="sourcePoint" />
            <mxPoint x="-511" y="130" as="targetPoint" />
          </mxGeometry>
        </mxCell>
        <mxCell id="sfNCHB1NnnzIo0879sDw-166" value="" style="endArrow=none;html=1;" edge="1" parent="1">
          <mxGeometry width="50" height="50" relative="1" as="geometry">
            <mxPoint x="-506" y="112.42999999999995" as="sourcePoint" />
            <mxPoint x="-516" y="112.42999999999995" as="targetPoint" />
          </mxGeometry>
        </mxCell>
        <mxCell id="sfNCHB1NnnzIo0879sDw-167" value="" style="endArrow=none;html=1;" edge="1" parent="1">
          <mxGeometry width="50" height="50" relative="1" as="geometry">
            <mxPoint x="-506" y="49.879999999999995" as="sourcePoint" />
            <mxPoint x="-516" y="49.879999999999995" as="targetPoint" />
            <Array as="points" />
          </mxGeometry>
        </mxCell>
        <mxCell id="sfNCHB1NnnzIo0879sDw-168" value="SB1" style="text;html=1;strokeColor=none;fillColor=none;align=center;verticalAlign=middle;whiteSpace=wrap;rounded=0;" vertex="1" parent="1">
          <mxGeometry x="-503" y="100" width="40" height="20" as="geometry" />
        </mxCell>
        <mxCell id="sfNCHB1NnnzIo0879sDw-169" value="M0.1" style="rounded=0;whiteSpace=wrap;html=1;" vertex="1" parent="1">
          <mxGeometry x="-541.5" y="130" width="63.5" height="30" as="geometry" />
        </mxCell>
        <mxCell id="sfNCHB1NnnzIo0879sDw-170" value="" style="rounded=0;whiteSpace=wrap;html=1;" vertex="1" parent="1">
          <mxGeometry x="-429.25" y="130" width="70" height="30" as="geometry" />
        </mxCell>
        <mxCell id="sfNCHB1NnnzIo0879sDw-171" value="M0.2" style="rounded=0;whiteSpace=wrap;html=1;" vertex="1" parent="1">
          <mxGeometry x="-541.5" y="190" width="63.5" height="30" as="geometry" />
        </mxCell>
        <mxCell id="sfNCHB1NnnzIo0879sDw-172" value="" style="rounded=0;whiteSpace=wrap;html=1;" vertex="1" parent="1">
          <mxGeometry x="-429.25" y="190" width="70" height="30" as="geometry" />
        </mxCell>
        <mxCell id="sfNCHB1NnnzIo0879sDw-173" value="M0.3" style="rounded=0;whiteSpace=wrap;html=1;" vertex="1" parent="1">
          <mxGeometry x="-541.5" y="270" width="63.5" height="30" as="geometry" />
        </mxCell>
        <mxCell id="sfNCHB1NnnzIo0879sDw-174" value="" style="rounded=0;whiteSpace=wrap;html=1;" vertex="1" parent="1">
          <mxGeometry x="-429.25" y="220" width="70" height="30" as="geometry" />
        </mxCell>
        <mxCell id="sfNCHB1NnnzIo0879sDw-175" value="M0.4" style="rounded=0;whiteSpace=wrap;html=1;" vertex="1" parent="1">
          <mxGeometry x="-540" y="330" width="61.5" height="30" as="geometry" />
        </mxCell>
        <mxCell id="sfNCHB1NnnzIo0879sDw-176" value="" style="rounded=0;whiteSpace=wrap;html=1;" vertex="1" parent="1">
          <mxGeometry x="-429.25" y="270" width="70" height="30" as="geometry" />
        </mxCell>
        <mxCell id="sfNCHB1NnnzIo0879sDw-177" value="M0.5" style="rounded=0;whiteSpace=wrap;html=1;" vertex="1" parent="1">
          <mxGeometry x="-541" y="390" width="63.5" height="30" as="geometry" />
        </mxCell>
        <mxCell id="sfNCHB1NnnzIo0879sDw-178" value="" style="rounded=0;whiteSpace=wrap;html=1;" vertex="1" parent="1">
          <mxGeometry x="-429.25" y="330" width="70" height="30" as="geometry" />
        </mxCell>
        <mxCell id="sfNCHB1NnnzIo0879sDw-179" value="" style="rounded=0;whiteSpace=wrap;html=1;" vertex="1" parent="1">
          <mxGeometry x="-429.25" y="390" width="69.25" height="30" as="geometry" />
        </mxCell>
        <mxCell id="sfNCHB1NnnzIo0879sDw-180" value="M0.6" style="rounded=0;whiteSpace=wrap;html=1;" vertex="1" parent="1">
          <mxGeometry x="-541.5" y="460" width="63.5" height="30" as="geometry" />
        </mxCell>
        <mxCell id="sfNCHB1NnnzIo0879sDw-181" value="" style="rounded=0;whiteSpace=wrap;html=1;" vertex="1" parent="1">
          <mxGeometry x="-429.25" y="460" width="70" height="30" as="geometry" />
        </mxCell>
        <mxCell id="sfNCHB1NnnzIo0879sDw-182" value="" style="rounded=0;whiteSpace=wrap;html=1;" vertex="1" parent="1">
          <mxGeometry x="-429.25" y="490" width="70" height="30" as="geometry" />
        </mxCell>
        <mxCell id="sfNCHB1NnnzIo0879sDw-183" value="M0.7" style="rounded=0;whiteSpace=wrap;html=1;" vertex="1" parent="1">
          <mxGeometry x="-540.25" y="540" width="63.5" height="30" as="geometry" />
        </mxCell>
        <mxCell id="sfNCHB1NnnzIo0879sDw-184" value="" style="rounded=0;whiteSpace=wrap;html=1;" vertex="1" parent="1">
          <mxGeometry x="-429.25" y="540" width="69.25" height="30" as="geometry" />
        </mxCell>
        <mxCell id="sfNCHB1NnnzIo0879sDw-186" value="M0.8" style="rounded=0;whiteSpace=wrap;html=1;" vertex="1" parent="1">
          <mxGeometry x="-541" y="600" width="63.5" height="30" as="geometry" />
        </mxCell>
        <mxCell id="sfNCHB1NnnzIo0879sDw-187" value="" style="rounded=0;whiteSpace=wrap;html=1;" vertex="1" parent="1">
          <mxGeometry x="-429.25" y="600" width="69.25" height="30" as="geometry" />
        </mxCell>
        <mxCell id="sfNCHB1NnnzIo0879sDw-188" value="" style="endArrow=none;html=1;exitX=1;exitY=0.5;exitDx=0;exitDy=0;" edge="1" parent="1" source="sfNCHB1NnnzIo0879sDw-169">
          <mxGeometry width="50" height="50" relative="1" as="geometry">
            <mxPoint x="-480" y="160" as="sourcePoint" />
            <mxPoint x="-430" y="145" as="targetPoint" />
          </mxGeometry>
        </mxCell>
        <mxCell id="sfNCHB1NnnzIo0879sDw-189" value="" style="endArrow=none;html=1;exitX=1;exitY=0.5;exitDx=0;exitDy=0;" edge="1" parent="1">
          <mxGeometry width="50" height="50" relative="1" as="geometry">
            <mxPoint x="-477.25" y="204.91999999999996" as="sourcePoint" />
            <mxPoint x="-429.25" y="204.91999999999996" as="targetPoint" />
          </mxGeometry>
        </mxCell>
        <mxCell id="sfNCHB1NnnzIo0879sDw-190" value="" style="endArrow=none;html=1;exitX=1;exitY=0.5;exitDx=0;exitDy=0;" edge="1" parent="1">
          <mxGeometry width="50" height="50" relative="1" as="geometry">
            <mxPoint x="-478" y="284.91999999999996" as="sourcePoint" />
            <mxPoint x="-430" y="284.91999999999996" as="targetPoint" />
          </mxGeometry>
        </mxCell>
        <mxCell id="sfNCHB1NnnzIo0879sDw-191" value="" style="endArrow=none;html=1;exitX=1;exitY=0.5;exitDx=0;exitDy=0;" edge="1" parent="1">
          <mxGeometry width="50" height="50" relative="1" as="geometry">
            <mxPoint x="-478" y="344.9200000000001" as="sourcePoint" />
            <mxPoint x="-430" y="344.9200000000001" as="targetPoint" />
          </mxGeometry>
        </mxCell>
        <mxCell id="sfNCHB1NnnzIo0879sDw-192" value="" style="endArrow=none;html=1;exitX=1;exitY=0.5;exitDx=0;exitDy=0;" edge="1" parent="1">
          <mxGeometry width="50" height="50" relative="1" as="geometry">
            <mxPoint x="-478" y="404.9000000000001" as="sourcePoint" />
            <mxPoint x="-430" y="404.9000000000001" as="targetPoint" />
          </mxGeometry>
        </mxCell>
        <mxCell id="sfNCHB1NnnzIo0879sDw-193" value="" style="endArrow=none;html=1;exitX=1;exitY=0.5;exitDx=0;exitDy=0;entryX=0;entryY=0.5;entryDx=0;entryDy=0;" edge="1" parent="1" target="sfNCHB1NnnzIo0879sDw-181">
          <mxGeometry width="50" height="50" relative="1" as="geometry">
            <mxPoint x="-478.5" y="474.9000000000001" as="sourcePoint" />
            <mxPoint x="-430.5" y="474.9000000000001" as="targetPoint" />
          </mxGeometry>
        </mxCell>
        <mxCell id="sfNCHB1NnnzIo0879sDw-194" value="" style="endArrow=none;html=1;exitX=1;exitY=0.5;exitDx=0;exitDy=0;" edge="1" parent="1">
          <mxGeometry width="50" height="50" relative="1" as="geometry">
            <mxPoint x="-477.25" y="554.9000000000001" as="sourcePoint" />
            <mxPoint x="-429.25" y="554.9000000000001" as="targetPoint" />
          </mxGeometry>
        </mxCell>
        <mxCell id="sfNCHB1NnnzIo0879sDw-195" value="" style="endArrow=none;html=1;exitX=1;exitY=0.5;exitDx=0;exitDy=0;" edge="1" parent="1" source="sfNCHB1NnnzIo0879sDw-186">
          <mxGeometry width="50" height="50" relative="1" as="geometry">
            <mxPoint x="-476.75" y="614.9000000000001" as="sourcePoint" />
            <mxPoint x="-428.75" y="614.9000000000001" as="targetPoint" />
          </mxGeometry>
        </mxCell>
        <mxCell id="sfNCHB1NnnzIo0879sDw-196" value="" style="endArrow=none;html=1;exitX=0.5;exitY=1;exitDx=0;exitDy=0;" edge="1" parent="1">
          <mxGeometry width="50" height="50" relative="1" as="geometry">
            <mxPoint x="-511" y="160" as="sourcePoint" />
            <mxPoint x="-511" y="187.5" as="targetPoint" />
          </mxGeometry>
        </mxCell>
        <mxCell id="sfNCHB1NnnzIo0879sDw-197" value="" style="endArrow=none;html=1;" edge="1" parent="1">
          <mxGeometry width="50" height="50" relative="1" as="geometry">
            <mxPoint x="-506" y="177.5" as="sourcePoint" />
            <mxPoint x="-516" y="177.5" as="targetPoint" />
          </mxGeometry>
        </mxCell>
        <mxCell id="sfNCHB1NnnzIo0879sDw-198" value="" style="endArrow=none;html=1;exitX=0.5;exitY=1;exitDx=0;exitDy=0;entryX=0.481;entryY=0.026;entryDx=0;entryDy=0;entryPerimeter=0;" edge="1" parent="1" target="sfNCHB1NnnzIo0879sDw-173">
          <mxGeometry width="50" height="50" relative="1" as="geometry">
            <mxPoint x="-511" y="220" as="sourcePoint" />
            <mxPoint x="-511" y="247.5" as="targetPoint" />
          </mxGeometry>
        </mxCell>
        <mxCell id="sfNCHB1NnnzIo0879sDw-199" value="" style="endArrow=none;html=1;" edge="1" parent="1">
          <mxGeometry width="50" height="50" relative="1" as="geometry">
            <mxPoint x="-506" y="250" as="sourcePoint" />
            <mxPoint x="-516" y="250" as="targetPoint" />
          </mxGeometry>
        </mxCell>
        <mxCell id="sfNCHB1NnnzIo0879sDw-200" value="" style="endArrow=none;html=1;exitX=0.48;exitY=1.083;exitDx=0;exitDy=0;exitPerimeter=0;" edge="1" parent="1" source="sfNCHB1NnnzIo0879sDw-173">
          <mxGeometry width="50" height="50" relative="1" as="geometry">
            <mxPoint x="-511" y="302.5" as="sourcePoint" />
            <mxPoint x="-511" y="330" as="targetPoint" />
          </mxGeometry>
        </mxCell>
        <mxCell id="sfNCHB1NnnzIo0879sDw-201" value="" style="endArrow=none;html=1;" edge="1" parent="1">
          <mxGeometry width="50" height="50" relative="1" as="geometry">
            <mxPoint x="-506" y="320" as="sourcePoint" />
            <mxPoint x="-516" y="320" as="targetPoint" />
          </mxGeometry>
        </mxCell>
        <mxCell id="sfNCHB1NnnzIo0879sDw-202" value="" style="endArrow=none;html=1;exitX=0.5;exitY=1;exitDx=0;exitDy=0;entryX=0.471;entryY=0.001;entryDx=0;entryDy=0;entryPerimeter=0;" edge="1" parent="1" target="sfNCHB1NnnzIo0879sDw-177">
          <mxGeometry width="50" height="50" relative="1" as="geometry">
            <mxPoint x="-511" y="360.0000000000001" as="sourcePoint" />
            <mxPoint x="-511" y="387.5000000000001" as="targetPoint" />
          </mxGeometry>
        </mxCell>
        <mxCell id="sfNCHB1NnnzIo0879sDw-203" value="" style="endArrow=none;html=1;" edge="1" parent="1">
          <mxGeometry width="50" height="50" relative="1" as="geometry">
            <mxPoint x="-506" y="377.5000000000001" as="sourcePoint" />
            <mxPoint x="-516" y="377.5000000000001" as="targetPoint" />
          </mxGeometry>
        </mxCell>
        <mxCell id="sfNCHB1NnnzIo0879sDw-204" value="" style="endArrow=none;html=1;exitX=0.5;exitY=1;exitDx=0;exitDy=0;entryX=0.481;entryY=0.015;entryDx=0;entryDy=0;entryPerimeter=0;" edge="1" parent="1" target="sfNCHB1NnnzIo0879sDw-180">
          <mxGeometry width="50" height="50" relative="1" as="geometry">
            <mxPoint x="-511" y="420.0000000000001" as="sourcePoint" />
            <mxPoint x="-511" y="447.5000000000001" as="targetPoint" />
          </mxGeometry>
        </mxCell>
        <mxCell id="sfNCHB1NnnzIo0879sDw-205" value="" style="endArrow=none;html=1;" edge="1" parent="1">
          <mxGeometry width="50" height="50" relative="1" as="geometry">
            <mxPoint x="-506" y="437.5000000000001" as="sourcePoint" />
            <mxPoint x="-516" y="437.5000000000001" as="targetPoint" />
          </mxGeometry>
        </mxCell>
        <mxCell id="sfNCHB1NnnzIo0879sDw-206" value="" style="endArrow=none;html=1;exitX=0.48;exitY=1;exitDx=0;exitDy=0;exitPerimeter=0;" edge="1" parent="1" source="sfNCHB1NnnzIo0879sDw-180">
          <mxGeometry width="50" height="50" relative="1" as="geometry">
            <mxPoint x="-511" y="512.5000000000001" as="sourcePoint" />
            <mxPoint x="-511" y="540" as="targetPoint" />
          </mxGeometry>
        </mxCell>
        <mxCell id="sfNCHB1NnnzIo0879sDw-207" value="" style="endArrow=none;html=1;" edge="1" parent="1">
          <mxGeometry width="50" height="50" relative="1" as="geometry">
            <mxPoint x="-506" y="530" as="sourcePoint" />
            <mxPoint x="-516" y="530" as="targetPoint" />
          </mxGeometry>
        </mxCell>
        <mxCell id="sfNCHB1NnnzIo0879sDw-208" value="" style="endArrow=none;html=1;exitX=0.5;exitY=1;exitDx=0;exitDy=0;" edge="1" parent="1">
          <mxGeometry width="50" height="50" relative="1" as="geometry">
            <mxPoint x="-511" y="572.5" as="sourcePoint" />
            <mxPoint x="-511" y="600" as="targetPoint" />
          </mxGeometry>
        </mxCell>
        <mxCell id="sfNCHB1NnnzIo0879sDw-209" value="" style="endArrow=none;html=1;" edge="1" parent="1">
          <mxGeometry width="50" height="50" relative="1" as="geometry">
            <mxPoint x="-506" y="590" as="sourcePoint" />
            <mxPoint x="-516" y="590" as="targetPoint" />
          </mxGeometry>
        </mxCell>
        <mxCell id="sfNCHB1NnnzIo0879sDw-210" value="下限位" style="text;html=1;strokeColor=none;fillColor=none;align=center;verticalAlign=middle;whiteSpace=wrap;rounded=0;" vertex="1" parent="1">
          <mxGeometry x="-493" y="160" width="40" height="20" as="geometry" />
        </mxCell>
        <mxCell id="sfNCHB1NnnzIo0879sDw-213" value="T1" style="text;html=1;strokeColor=none;fillColor=none;align=center;verticalAlign=middle;whiteSpace=wrap;rounded=0;" vertex="1" parent="1">
          <mxGeometry x="-493" y="230" width="40" height="20" as="geometry" />
        </mxCell>
        <mxCell id="sfNCHB1NnnzIo0879sDw-214" value="上限位" style="text;html=1;strokeColor=none;fillColor=none;align=center;verticalAlign=middle;whiteSpace=wrap;rounded=0;" vertex="1" parent="1">
          <mxGeometry x="-490" y="300" width="40" height="20" as="geometry" />
        </mxCell>
        <mxCell id="sfNCHB1NnnzIo0879sDw-215" value="右限位" style="text;html=1;strokeColor=none;fillColor=none;align=center;verticalAlign=middle;whiteSpace=wrap;rounded=0;" vertex="1" parent="1">
          <mxGeometry x="-493" y="360" width="40" height="20" as="geometry" />
        </mxCell>
        <mxCell id="sfNCHB1NnnzIo0879sDw-216" value="下限位" style="text;html=1;strokeColor=none;fillColor=none;align=center;verticalAlign=middle;whiteSpace=wrap;rounded=0;" vertex="1" parent="1">
          <mxGeometry x="-506" y="430" width="40" height="20" as="geometry" />
        </mxCell>
        <mxCell id="sfNCHB1NnnzIo0879sDw-217" value="T2" style="text;html=1;strokeColor=none;fillColor=none;align=center;verticalAlign=middle;whiteSpace=wrap;rounded=0;" vertex="1" parent="1">
          <mxGeometry x="-510" y="500" width="40" height="20" as="geometry" />
        </mxCell>
        <mxCell id="sfNCHB1NnnzIo0879sDw-219" value="上限位" style="text;html=1;strokeColor=none;fillColor=none;align=center;verticalAlign=middle;whiteSpace=wrap;rounded=0;" vertex="1" parent="1">
          <mxGeometry x="-503" y="570" width="40" height="20" as="geometry" />
        </mxCell>
        <mxCell id="sfNCHB1NnnzIo0879sDw-221" value="下降" style="text;html=1;strokeColor=none;fillColor=none;align=center;verticalAlign=middle;whiteSpace=wrap;rounded=0;" vertex="1" parent="1">
          <mxGeometry x="-401.5" y="135" width="40" height="20" as="geometry" />
        </mxCell>
        <mxCell id="sfNCHB1NnnzIo0879sDw-222" value="夹紧" style="text;html=1;strokeColor=none;fillColor=none;align=center;verticalAlign=middle;whiteSpace=wrap;rounded=0;" vertex="1" parent="1">
          <mxGeometry x="-401.5" y="195" width="40" height="20" as="geometry" />
        </mxCell>
        <mxCell id="sfNCHB1NnnzIo0879sDw-223" value="2s" style="text;html=1;strokeColor=none;fillColor=none;align=center;verticalAlign=middle;whiteSpace=wrap;rounded=0;" vertex="1" parent="1">
          <mxGeometry x="-403" y="225" width="40" height="20" as="geometry" />
        </mxCell>
        <mxCell id="sfNCHB1NnnzIo0879sDw-224" value="上升" style="text;html=1;strokeColor=none;fillColor=none;align=center;verticalAlign=middle;whiteSpace=wrap;rounded=0;" vertex="1" parent="1">
          <mxGeometry x="-399.25" y="275" width="40" height="20" as="geometry" />
        </mxCell>
        <mxCell id="sfNCHB1NnnzIo0879sDw-225" value="右行" style="text;html=1;strokeColor=none;fillColor=none;align=center;verticalAlign=middle;whiteSpace=wrap;rounded=0;" vertex="1" parent="1">
          <mxGeometry x="-399.25" y="335" width="40" height="20" as="geometry" />
        </mxCell>
        <mxCell id="sfNCHB1NnnzIo0879sDw-226" value="下降" style="text;html=1;strokeColor=none;fillColor=none;align=center;verticalAlign=middle;whiteSpace=wrap;rounded=0;" vertex="1" parent="1">
          <mxGeometry x="-403" y="395" width="40" height="20" as="geometry" />
        </mxCell>
        <mxCell id="sfNCHB1NnnzIo0879sDw-227" value="松开" style="text;html=1;strokeColor=none;fillColor=none;align=center;verticalAlign=middle;whiteSpace=wrap;rounded=0;" vertex="1" parent="1">
          <mxGeometry x="-400" y="465" width="40" height="20" as="geometry" />
        </mxCell>
        <mxCell id="sfNCHB1NnnzIo0879sDw-228" value="2s" style="text;html=1;strokeColor=none;fillColor=none;align=center;verticalAlign=middle;whiteSpace=wrap;rounded=0;" vertex="1" parent="1">
          <mxGeometry x="-401.5" y="500" width="40" height="20" as="geometry" />
        </mxCell>
        <mxCell id="sfNCHB1NnnzIo0879sDw-229" value="上升" style="text;html=1;strokeColor=none;fillColor=none;align=center;verticalAlign=middle;whiteSpace=wrap;rounded=0;" vertex="1" parent="1">
          <mxGeometry x="-399.25" y="545" width="40" height="20" as="geometry" />
        </mxCell>
        <mxCell id="sfNCHB1NnnzIo0879sDw-230" value="左行" style="text;html=1;strokeColor=none;fillColor=none;align=center;verticalAlign=middle;whiteSpace=wrap;rounded=0;" vertex="1" parent="1">
          <mxGeometry x="-401.5" y="605" width="40" height="20" as="geometry" />
        </mxCell>
        <mxCell id="sfNCHB1NnnzIo0879sDw-231" value="" style="endArrow=classic;html=1;exitX=0.5;exitY=1;exitDx=0;exitDy=0;" edge="1" parent="1" source="sfNCHB1NnnzIo0879sDw-186">
          <mxGeometry width="50" height="50" relative="1" as="geometry">
            <mxPoint x="-559" y="628" as="sourcePoint" />
            <mxPoint x="-510" y="60" as="targetPoint" />
            <Array as="points">
              <mxPoint x="-510" y="665" />
              <mxPoint x="-670" y="665" />
              <mxPoint x="-670" y="60" />
            </Array>
          </mxGeometry>
        </mxCell>
        <mxCell id="sfNCHB1NnnzIo0879sDw-232" value="" style="endArrow=none;html=1;" edge="1" parent="1">
          <mxGeometry width="50" height="50" relative="1" as="geometry">
            <mxPoint x="-510" y="120" as="sourcePoint" />
            <mxPoint x="-510" y="660" as="targetPoint" />
            <Array as="points">
              <mxPoint x="-263" y="120" />
              <mxPoint x="-263" y="660" />
            </Array>
          </mxGeometry>
        </mxCell>
        <mxCell id="sfNCHB1NnnzIo0879sDw-233" value="" style="endArrow=classic;html=1;" edge="1" parent="1">
          <mxGeometry width="50" height="50" relative="1" as="geometry">
            <mxPoint x="-390" y="120" as="sourcePoint" />
            <mxPoint x="-510" y="120" as="targetPoint" />
          </mxGeometry>
        </mxCell>
        <mxCell id="sfNCHB1NnnzIo0879sDw-234" value="" style="rounded=1;whiteSpace=wrap;html=1;" vertex="1" parent="1">
          <mxGeometry x="322.5" y="567.5" width="61" height="35" as="geometry" />
        </mxCell>
        <mxCell id="sfNCHB1NnnzIo0879sDw-235" value="M0.0" style="rounded=1;whiteSpace=wrap;html=1;" vertex="1" parent="1">
          <mxGeometry x="325" y="570" width="56" height="30" as="geometry" />
        </mxCell>
        <mxCell id="sfNCHB1NnnzIo0879sDw-236" value="" style="endArrow=none;html=1;" edge="1" parent="1">
          <mxGeometry width="50" height="50" relative="1" as="geometry">
            <mxPoint x="353" y="520" as="sourcePoint" />
            <mxPoint x="353" y="570" as="targetPoint" />
            <Array as="points">
              <mxPoint x="353" y="560" />
            </Array>
          </mxGeometry>
        </mxCell>
        <mxCell id="sfNCHB1NnnzIo0879sDw-237" value="SM0.1" style="text;html=1;strokeColor=none;fillColor=none;align=center;verticalAlign=middle;whiteSpace=wrap;rounded=0;" vertex="1" parent="1">
          <mxGeometry x="371" y="540" width="40" height="20" as="geometry" />
        </mxCell>
        <mxCell id="sfNCHB1NnnzIo0879sDw-238" value="" style="endArrow=none;html=1;" edge="1" parent="1">
          <mxGeometry width="50" height="50" relative="1" as="geometry">
            <mxPoint x="358" y="549.88" as="sourcePoint" />
            <mxPoint x="348" y="549.88" as="targetPoint" />
            <Array as="points" />
          </mxGeometry>
        </mxCell>
        <mxCell id="sfNCHB1NnnzIo0879sDw-241" value="" style="endArrow=none;html=1;exitX=0.5;exitY=1;exitDx=0;exitDy=0;" edge="1" parent="1">
          <mxGeometry width="50" height="50" relative="1" as="geometry">
            <mxPoint x="352.86" y="602.5" as="sourcePoint" />
            <mxPoint x="352.86" y="630" as="targetPoint" />
          </mxGeometry>
        </mxCell>
        <mxCell id="sfNCHB1NnnzIo0879sDw-242" value="" style="endArrow=none;html=1;" edge="1" parent="1">
          <mxGeometry width="50" height="50" relative="1" as="geometry">
            <mxPoint x="358" y="615.43" as="sourcePoint" />
            <mxPoint x="348" y="615.43" as="targetPoint" />
            <Array as="points">
              <mxPoint x="358" y="615" />
            </Array>
          </mxGeometry>
        </mxCell>
        <mxCell id="sfNCHB1NnnzIo0879sDw-245" value="M0.1" style="rounded=0;whiteSpace=wrap;html=1;" vertex="1" parent="1">
          <mxGeometry x="325" y="630" width="57.5" height="30" as="geometry" />
        </mxCell>
        <mxCell id="sfNCHB1NnnzIo0879sDw-246" value="M0.1" style="rounded=0;whiteSpace=wrap;html=1;" vertex="1" parent="1">
          <mxGeometry x="326" y="708" width="57.5" height="30" as="geometry" />
        </mxCell>
        <mxCell id="sfNCHB1NnnzIo0879sDw-247" value="M0.1" style="rounded=0;whiteSpace=wrap;html=1;" vertex="1" parent="1">
          <mxGeometry x="324.25" y="802.5" width="57.5" height="30" as="geometry" />
        </mxCell>
        <mxCell id="sfNCHB1NnnzIo0879sDw-248" value="M0.1" style="rounded=0;whiteSpace=wrap;html=1;" vertex="1" parent="1">
          <mxGeometry x="323.5" y="885.25" width="57.5" height="30" as="geometry" />
        </mxCell>
        <mxCell id="sfNCHB1NnnzIo0879sDw-249" value="M0.1" style="rounded=0;whiteSpace=wrap;html=1;" vertex="1" parent="1">
          <mxGeometry x="322.5" y="960" width="57.5" height="30" as="geometry" />
        </mxCell>
        <mxCell id="sfNCHB1NnnzIo0879sDw-250" value="M0.1" style="rounded=0;whiteSpace=wrap;html=1;" vertex="1" parent="1">
          <mxGeometry x="324.25" y="1040" width="57.5" height="30" as="geometry" />
        </mxCell>
        <mxCell id="sfNCHB1NnnzIo0879sDw-251" value="" style="rounded=0;whiteSpace=wrap;html=1;" vertex="1" parent="1">
          <mxGeometry x="460" y="552" width="50" height="32" as="geometry" />
        </mxCell>
        <mxCell id="sfNCHB1NnnzIo0879sDw-252" value="" style="rounded=0;whiteSpace=wrap;html=1;" vertex="1" parent="1">
          <mxGeometry x="510" y="552" width="50" height="32" as="geometry" />
        </mxCell>
        <mxCell id="sfNCHB1NnnzIo0879sDw-253" value="" style="rounded=0;whiteSpace=wrap;html=1;" vertex="1" parent="1">
          <mxGeometry x="460" y="584.5" width="50" height="32" as="geometry" />
        </mxCell>
        <mxCell id="sfNCHB1NnnzIo0879sDw-254" value="" style="rounded=0;whiteSpace=wrap;html=1;" vertex="1" parent="1">
          <mxGeometry x="510" y="584.5" width="50" height="32" as="geometry" />
        </mxCell>
        <mxCell id="sfNCHB1NnnzIo0879sDw-257" value="" style="rounded=0;whiteSpace=wrap;html=1;" vertex="1" parent="1">
          <mxGeometry x="460" y="630" width="50" height="32" as="geometry" />
        </mxCell>
        <mxCell id="sfNCHB1NnnzIo0879sDw-258" value="" style="rounded=0;whiteSpace=wrap;html=1;" vertex="1" parent="1">
          <mxGeometry x="510" y="630" width="50" height="32" as="geometry" />
        </mxCell>
        <mxCell id="sfNCHB1NnnzIo0879sDw-259" value="" style="rounded=0;whiteSpace=wrap;html=1;" vertex="1" parent="1">
          <mxGeometry x="460" y="662.5" width="50" height="32" as="geometry" />
        </mxCell>
        <mxCell id="sfNCHB1NnnzIo0879sDw-260" value="" style="rounded=0;whiteSpace=wrap;html=1;" vertex="1" parent="1">
          <mxGeometry x="510" y="662.5" width="50" height="32" as="geometry" />
        </mxCell>
        <mxCell id="sfNCHB1NnnzIo0879sDw-261" value="" style="rounded=0;whiteSpace=wrap;html=1;" vertex="1" parent="1">
          <mxGeometry x="460" y="705.5" width="50" height="32" as="geometry" />
        </mxCell>
        <mxCell id="sfNCHB1NnnzIo0879sDw-262" value="" style="rounded=0;whiteSpace=wrap;html=1;" vertex="1" parent="1">
          <mxGeometry x="510" y="705.5" width="50" height="32" as="geometry" />
        </mxCell>
        <mxCell id="sfNCHB1NnnzIo0879sDw-263" value="" style="rounded=0;whiteSpace=wrap;html=1;" vertex="1" parent="1">
          <mxGeometry x="460" y="738" width="50" height="32" as="geometry" />
        </mxCell>
        <mxCell id="sfNCHB1NnnzIo0879sDw-264" value="" style="rounded=0;whiteSpace=wrap;html=1;" vertex="1" parent="1">
          <mxGeometry x="510" y="738" width="50" height="32" as="geometry" />
        </mxCell>
        <mxCell id="sfNCHB1NnnzIo0879sDw-265" value="" style="rounded=0;whiteSpace=wrap;html=1;" vertex="1" parent="1">
          <mxGeometry x="460" y="800" width="50" height="32" as="geometry" />
        </mxCell>
        <mxCell id="sfNCHB1NnnzIo0879sDw-266" value="" style="rounded=0;whiteSpace=wrap;html=1;" vertex="1" parent="1">
          <mxGeometry x="510" y="800" width="50" height="32" as="geometry" />
        </mxCell>
        <mxCell id="sfNCHB1NnnzIo0879sDw-267" value="" style="rounded=0;whiteSpace=wrap;html=1;" vertex="1" parent="1">
          <mxGeometry x="460" y="832.5" width="50" height="32" as="geometry" />
        </mxCell>
        <mxCell id="sfNCHB1NnnzIo0879sDw-268" value="" style="rounded=0;whiteSpace=wrap;html=1;" vertex="1" parent="1">
          <mxGeometry x="510" y="832.5" width="50" height="32" as="geometry" />
        </mxCell>
        <mxCell id="sfNCHB1NnnzIo0879sDw-269" value="" style="rounded=0;whiteSpace=wrap;html=1;" vertex="1" parent="1">
          <mxGeometry x="460" y="882.75" width="50" height="32" as="geometry" />
        </mxCell>
        <mxCell id="sfNCHB1NnnzIo0879sDw-270" value="" style="rounded=0;whiteSpace=wrap;html=1;" vertex="1" parent="1">
          <mxGeometry x="510" y="882.75" width="50" height="32" as="geometry" />
        </mxCell>
        <mxCell id="sfNCHB1NnnzIo0879sDw-271" value="" style="rounded=0;whiteSpace=wrap;html=1;" vertex="1" parent="1">
          <mxGeometry x="460" y="915.25" width="50" height="32" as="geometry" />
        </mxCell>
        <mxCell id="sfNCHB1NnnzIo0879sDw-272" value="" style="rounded=0;whiteSpace=wrap;html=1;" vertex="1" parent="1">
          <mxGeometry x="510" y="915.25" width="50" height="32" as="geometry" />
        </mxCell>
        <mxCell id="sfNCHB1NnnzIo0879sDw-273" value="" style="rounded=0;whiteSpace=wrap;html=1;" vertex="1" parent="1">
          <mxGeometry x="460" y="960" width="50" height="32" as="geometry" />
        </mxCell>
        <mxCell id="sfNCHB1NnnzIo0879sDw-274" value="" style="rounded=0;whiteSpace=wrap;html=1;" vertex="1" parent="1">
          <mxGeometry x="510" y="960" width="50" height="32" as="geometry" />
        </mxCell>
        <mxCell id="sfNCHB1NnnzIo0879sDw-275" value="" style="rounded=0;whiteSpace=wrap;html=1;" vertex="1" parent="1">
          <mxGeometry x="460" y="992.5" width="50" height="32" as="geometry" />
        </mxCell>
        <mxCell id="sfNCHB1NnnzIo0879sDw-276" value="" style="rounded=0;whiteSpace=wrap;html=1;" vertex="1" parent="1">
          <mxGeometry x="510" y="992.5" width="50" height="32" as="geometry" />
        </mxCell>
        <mxCell id="sfNCHB1NnnzIo0879sDw-277" value="" style="rounded=0;whiteSpace=wrap;html=1;" vertex="1" parent="1">
          <mxGeometry x="460" y="1040" width="50" height="32" as="geometry" />
        </mxCell>
        <mxCell id="sfNCHB1NnnzIo0879sDw-278" value="" style="rounded=0;whiteSpace=wrap;html=1;" vertex="1" parent="1">
          <mxGeometry x="510" y="1040" width="50" height="32" as="geometry" />
        </mxCell>
        <mxCell id="sfNCHB1NnnzIo0879sDw-279" value="" style="rounded=0;whiteSpace=wrap;html=1;" vertex="1" parent="1">
          <mxGeometry x="460" y="1072.5" width="50" height="32" as="geometry" />
        </mxCell>
        <mxCell id="sfNCHB1NnnzIo0879sDw-280" value="" style="rounded=0;whiteSpace=wrap;html=1;" vertex="1" parent="1">
          <mxGeometry x="510" y="1072.5" width="50" height="32" as="geometry" />
        </mxCell>
      </root>
    </mxGraphModel>
  </diagram>
</mxfile>
